<?xml version="1.0" encoding="utf-8"?>
<!-- Generator: Adobe Illustrator 22.1.0, SVG Export Plug-In . SVG Version: 6.00 Build 0)  -->
<svg version="1.1" id="logo" xmlns="http://www.w3.org/2000/svg" xmlns:xlink="http://www.w3.org/1999/xlink" x="0px" y="0px"
	 viewBox="0 0 163 92" enable-background="new 0 0 163 92" xml:space="preserve">
<path id="_x3C_orange_x3E_" fill="#FE765F" enable-background="new    " d="M10.3,61.5c0,1.7-1.3,2.5-3.4,2.5H0.6v-9.1h6.1
	c1.8,0,3.2,0.8,3.2,2.3c0,1-0.6,2-2,2.1C9.3,59.4,10.3,60,10.3,61.5z M1.7,58.9h4.8c1.3,0,2.2-0.3,2.2-1.5c0-1.1-0.9-1.5-2.2-1.5
	H1.7C1.7,55.9,1.7,58.9,1.7,58.9z M9.2,61.4c0-1.1-0.9-1.6-2.5-1.6h-5V63h5C8.3,63,9.2,62.5,9.2,61.4z M12.2,60.5
	c0-2.3,1.6-3.8,4.3-3.8s4.3,1.5,4.3,3.8s-1.6,3.8-4.3,3.8S12.2,62.8,12.2,60.5z M19.7,60.5c0-1.9-1.4-2.9-3.2-2.9s-3.2,0.9-3.2,2.9
	c0,1.9,1.4,2.9,3.2,2.9C18.4,63.3,19.7,62.4,19.7,60.5z M30.3,62c0,1.3-1.3,2.3-3.7,2.3c-1.6,0-3-0.6-4.1-1.5l0.7-0.6
	c0.9,0.8,2,1.3,3.5,1.3s2.6-0.5,2.6-1.3c0-0.9-1.1-1.1-2.9-1.3c-1.9-0.2-3.7-0.6-3.7-2s1.6-2.1,3.7-2.1c1.4,0,2.8,0.6,3.5,1.2
	l-0.7,0.7c-0.7-0.6-1.6-1-2.9-1c-1.1,0-2.5,0.2-2.5,1.2c0,0.9,1.3,1.1,2.8,1.2C28.8,60.1,30.3,60.6,30.3,62z M32.5,64v-7.1h1.1v1.5
	c0.7-1.1,1.9-1.7,3.4-1.7c2.2,0,3.2,1.4,3.2,3.3v4h-1.1v-3.9c0-1.6-0.8-2.5-2.4-2.5c-1.4,0-2.5,0.6-3.2,2V64H32.5z M43,55.1
	c0-0.4,0.3-0.7,0.8-0.7c0.4,0,0.8,0.3,0.8,0.7s-0.3,0.7-0.8,0.7S43,55.5,43,55.1z M44.2,64h-1.1v-7.1h1.1V64z M54.4,60.1v2.5
	c0,0.5,0.1,1,0.3,1.4h-1.1c-0.2-0.4-0.3-0.7-0.3-1.1c-0.6,0.8-1.7,1.4-3.2,1.4s-3.6-0.6-3.6-2.5s2.1-2.5,3.6-2.5s2.7,0.6,3.2,1.4
	v-0.6c0-1.7-1-2.5-2.9-2.5c-1.1,0-2,0.3-2.8,0.8l-0.5-0.8c0.8-0.6,2.2-1,3.5-1C53,56.7,54.4,57.8,54.4,60.1z M53.4,61.6
	c-0.6-1.1-2-1.5-3.1-1.5c-1,0-2.7,0.3-2.7,1.6s1.6,1.6,2.7,1.6c1.2,0,2.5-0.4,3.1-1.5C53.4,61.8,53.4,61.6,53.4,61.6z M57.3,64v-7.1
	h1.1v1.5c0.7-1.1,1.9-1.7,3.4-1.7c2.2,0,3.2,1.4,3.2,3.3v4h-1.1v-3.9c0-1.6-0.8-2.5-2.4-2.5c-1.4,0-2.5,0.6-3.2,2V64H57.3z M81,64
	l-3-3.5h-4.3V64h-1.1v-9.1h6.1c2,0,3.5,1,3.5,2.8c0,1.6-1.1,2.6-2.8,2.8l3.1,3.5H81z M78.6,59.5c1.5,0,2.4-0.6,2.4-1.8
	s-1-1.8-2.4-1.8h-4.9v3.6H78.6z M88.5,63.4c1.4,0,2.2-0.4,3.1-1.1l0.7,0.7c-1,0.9-2.1,1.3-3.8,1.3c-2.7,0-4.3-1.5-4.3-3.8
	s1.6-3.8,4.3-3.8c2.5,0,4.1,1.4,4.1,3.8v0.2h-7.3C85.3,62.5,86.6,63.4,88.5,63.4L88.5,63.4z M85.3,59.8h6.2c-0.3-1.6-1.5-2.2-3-2.2
	C86.8,57.6,85.5,58.3,85.3,59.8z M101.9,62c0,1.3-1.3,2.3-3.7,2.3c-1.6,0-3-0.6-4.1-1.5l0.7-0.6c0.9,0.8,2,1.3,3.5,1.3
	s2.6-0.5,2.6-1.3c0-0.9-1.1-1.1-2.9-1.3c-1.9-0.2-3.7-0.6-3.7-2s1.6-2.1,3.7-2.1c1.4,0,2.8,0.6,3.5,1.2l-0.7,0.7
	c-0.7-0.6-1.6-1-2.9-1c-1.1,0-2.5,0.2-2.5,1.2c0,0.9,1.3,1.1,2.8,1.2C100.4,60.1,101.9,60.6,101.9,62z M108.8,63.6
	c-0.6,0.4-1.3,0.7-2.1,0.7c-1.3,0-2.3-0.7-2.3-2.1v-4.4H103v-0.9h1.4v-1.7h1.1v1.7h3.3v0.9h-3.3V62c0,0.9,0.7,1.3,1.4,1.3
	c0.6,0,1-0.2,1.5-0.5L108.8,63.6z M117.9,60.1v2.5c0,0.5,0.1,1,0.3,1.4h-1.1c-0.2-0.4-0.3-0.7-0.3-1.1c-0.6,0.8-1.7,1.4-3.2,1.4
	s-3.6-0.6-3.6-2.5s2.1-2.5,3.6-2.5s2.7,0.6,3.2,1.4v-0.6c0-1.7-1-2.5-2.9-2.5c-1.1,0-2,0.3-2.8,0.8l-0.5-0.8c0.8-0.6,2.2-1,3.5-1
	C116.4,56.7,117.9,57.8,117.9,60.1z M116.8,61.6c-0.6-1.1-2-1.5-3.1-1.5c-1,0-2.7,0.3-2.7,1.6s1.6,1.6,2.7,1.6
	c1.2,0,2.5-0.4,3.1-1.5C116.8,61.8,116.8,61.6,116.8,61.6z M128.4,56.9V64h-1.1v-1.5c-0.7,1.1-1.9,1.7-3.4,1.7
	c-2.2,0-3.2-1.4-3.2-3.3v-4h1.1v3.9c0,1.6,0.8,2.5,2.4,2.5c1.4,0,2.5-0.6,3.2-1.9V57L128.4,56.9L128.4,56.9z M131.3,64v-7.1h1.1v1.7
	c0.6-1.2,2-1.9,3.5-1.9v1c-1.6,0-3,0.7-3.5,2.1V64H131.3z M144.7,60.1v2.5c0,0.5,0.1,1,0.3,1.4h-1.1c-0.2-0.4-0.3-0.7-0.3-1.1
	c-0.6,0.8-1.7,1.4-3.2,1.4s-3.6-0.6-3.6-2.5s2.1-2.5,3.6-2.5s2.7,0.6,3.2,1.4v-0.6c0-1.7-1-2.5-2.9-2.5c-1.1,0-2,0.3-2.8,0.8
	l-0.5-0.8c0.8-0.6,2.2-1,3.5-1C143.3,56.7,144.7,57.8,144.7,60.1z M143.7,61.6c-0.6-1.1-2-1.5-3.1-1.5c-1,0-2.7,0.3-2.7,1.6
	s1.6,1.6,2.7,1.6c1.2,0,2.5-0.4,3.1-1.5C143.7,61.8,143.7,61.6,143.7,61.6z M147.6,64v-7.1h1.1v1.5c0.7-1.1,1.9-1.7,3.4-1.7
	c2.2,0,3.2,1.4,3.2,3.3v4h-1.1v-3.9c0-1.6-0.8-2.5-2.4-2.5c-1.4,0-2.5,0.6-3.2,2V64H147.6z M162.8,63.6c-0.6,0.4-1.3,0.7-2.1,0.7
	c-1.3,0-2.3-0.7-2.3-2.1v-4.4H157v-0.9h1.4v-1.7h1.1v1.7h3.3v0.9h-3.3V62c0,0.9,0.7,1.3,1.4,1.3c0.6,0,1-0.2,1.5-0.5L162.8,63.6
	L162.8,63.6z M82,16l-8-8l8-8l8,8L82,16z M75.4,8l6.6,6.6L88.6,8L82,1.4L75.4,8z M53,7.7h59.1v1H53V7.7z"/>
<path id="_x3C_blue_x3E_" fill="#0C2765" d="M30.6,28.6c0.3-0.3,0.5-0.2,0.6,0.1c0.2,0.9-0.2,2.1-1.5,3.8c-1.9,2.5-6.2,7.8-9.4,12.7
	c-0.2,0.3-0.4,0.4-0.8,0.1c-1-0.8-1.4-1.7-1.2-3.6c0.5-4.2,1.8-10.5,2.8-13.1c0.2-0.4,0.4-0.5,0.6-0.2c0.6,0.7,0.7,1.7,0.3,3.8
	c-0.6,2.6-1.5,6.4-2.1,10.5C22.5,38.5,28.2,31.1,30.6,28.6z M35.8,34.6c0.2-0.4,0.5-0.4,0.6-0.2c0.4,0.5,0.6,1.6,0,3
	c-0.6,1.2-1.9,3.2-2.6,4.7c-0.7,1.5-0.7,2.7,0.2,2.6c1.1-0.1,2.6-1.9,3.5-3.8c0.1-0.2,0.3-0.3,0.4,0c0.1,0.2,0.1,0.9-0.2,1.7
	c-0.7,1.5-2.4,3-3.9,2.9s-2.2-0.9-2.2-2.2c-0.9,1.1-2.1,2.1-3.4,2.1c-2.5,0-3-3.4-0.8-6.7c2.2-3.2,4.3-4.4,5.7-4.4
	c1.2,0,1.7,0.9,1.6,1.9C35.2,35.6,35.5,35,35.8,34.6z M33.7,35.7c-0.9-0.1-2.8,1.7-4.3,4.1c-1.4,2.3-1.8,4.7-0.7,4.7
	s2.5-1.7,3.9-4.1C34.2,37.4,34.5,35.8,33.7,35.7z M41.7,35.9c0.1-1.1,0.4-1.6,1-2.1s1.2-0.6,1.5-0.4c0.3,0.3,0.1,0.6-0.2,1.2
	c-0.1,0.2-0.2,0.3-0.3,0.5c-0.2,2.5,0.3,4.6,0.2,6.5c-0.1,1.1-0.2,2.2-1.2,2.8c1.8-0.7,2.9-2.3,3.6-3.8c0.1-0.3,0.4-0.2,0.5,0
	s0.1,0.9-0.4,1.8c-1,1.9-2.9,2.9-4.8,3c-1.6,0.1-3.1-0.4-4-2c-0.6-1.2-0.6-3,0.4-3.8c0.3-0.3,0.5-0.2,0.6,0.3c0,0.2,0,0.4,0.1,0.6
	C39.7,39.1,41,37.3,41.7,35.9z M38.9,42c0.4,1.6,1.2,2.7,2.1,2.4c1.2-0.4,0.8-4.6,0.7-6.8C40.9,39.1,39.9,40.6,38.9,42z M54.3,36.1
	c0.6,1.1-0.5,2.6-1.1,4c-0.1,0.3-0.2,0.4-0.6,0.2C52,40,51.6,39.2,52,38c0.3-1,1.1-2.1,0.7-2.4c-0.5-0.4-2.5,1.3-3.7,3.8
	c-1.5,3.1-0.9,5.3,0.7,5.3c2.3,0,4.2-2.1,5.3-3.8c0.1-0.2,0.4-0.2,0.5,0s0,0.9-0.5,1.6c-1,1.6-3.2,2.9-5.2,2.9
	c-3.4,0.1-4.6-3.3-2.8-6.8c1.7-3.4,4.5-4.9,5.8-4C53.6,35,54,35.4,54.3,36.1z M73,39.5c-0.6,2.3-2.2,5-4.2,5.7
	c-1,0.3-2.3,0.3-3.4-1.1c-1-1.3-0.9-3.1-0.2-4.9c-0.5,0.2-1.1,0.4-1.7,0.4c-0.6,2.3-2.2,5-4.2,5.7c-1,0.3-2.3,0.3-3.4-1.1
	c-1.2-1.6-0.8-4,0.4-6.1c1.1-1.8,2.7-3.4,4.3-3.5c0.8-0.1,1.3,0.1,1.8,0.9c0.6,0.9,1.4,1,1.3,3v0.4c1.1-0.2,2.1-1.1,2.9-2.1
	c1-1.2,2.2-2.1,3.5-2.2c0.8-0.1,1.3,0.2,1.8,0.9c0.6,0.9,1.4,1,1.3,3c0,0.2,0,0.4-0.1,0.6h0.5c0.2-0.1,0.2,0.1,0.1,0.3
	C73.6,39.4,73.3,39.5,73,39.5z M57.9,39c-1.2,2-1.6,4.5-0.8,5.1c0.7,0.6,2.3-0.4,3.7-2.8c0.4-0.8,0.8-1.6,1-2.2
	c-0.9-0.5-1.8-1.5-1.8-2.6C59.3,37.1,58.5,38,57.9,39z M61.3,36.6c-0.1,0.8,0.1,1.5,0.6,1.9c0.2-0.8,0.2-1.5,0.2-2
	C62,35.6,61.4,35.7,61.3,36.6z M70.7,38.8c-0.6-0.4-1.3-1.4-1.3-2.3c-0.7,0.6-1.4,1.5-2,2.5c-1.2,2-1.5,4.5-0.8,5.1s2.3-0.4,3.7-2.8
	c0.4-0.8,0.8-1.5,1-2.2C71,39.1,70.9,39,70.7,38.8z M71.6,36.4c-0.1-0.9-0.6-0.7-0.8,0.1c-0.1,0.7,0.2,1.5,0.6,1.9
	C71.6,37.6,71.6,36.9,71.6,36.4z M78.1,33.5c-0.2,0-0.2-0.2-0.1-0.5c0.6-1.3,2.2-4.2,3.1-5.2c0.4-0.4,0.6-0.3,0.7,0
	c0.2,0.5-0.1,1.1-0.4,1.6c-0.6,1-1.9,2.8-2.6,3.6C78.5,33.5,78.3,33.5,78.1,33.5z M81.5,35.9c0.1-1.1,0.4-1.6,1-2.1s1.2-0.6,1.5-0.4
	c0.3,0.3,0.1,0.6-0.2,1.2c-0.1,0.2-0.2,0.3-0.3,0.5c-0.2,2.5,0.3,4.6,0.2,6.5c-0.1,1.1-0.2,2.2-1.2,2.8c1.8-0.7,2.9-2.3,3.6-3.8
	c0.1-0.3,0.4-0.2,0.5,0s0.1,0.9-0.4,1.8c-1,1.9-2.9,2.9-4.8,3c-1.6,0.1-3.1-0.4-4-2c-0.6-1.2-0.6-3,0.4-3.8c0.3-0.3,0.5-0.2,0.6,0.3
	c0,0.2,0,0.4,0.1,0.6C79.5,39.1,80.7,37.3,81.5,35.9z M78.6,42c0.4,1.6,1.2,2.7,2.1,2.4c1.2-0.4,0.8-4.6,0.7-6.8
	C80.6,39.1,79.6,40.6,78.6,42z M104.4,37.8c0.6,0.3,0.9,0.7,1.1,1.2c0.1,0.2,0,0.4-0.3,0.3c-0.4-0.1-0.9-0.1-1.5-0.1
	c-0.9,1.8-1.9,3.7-2.8,5.7c-0.1,0.3-0.3,0.3-0.5,0.1c-0.4-0.5-0.6-1.3-0.1-3c0.2-0.5,0.6-1.5,1.1-2.6c-2,0.2-4,0.6-5.3,0.6
	c-0.8,1.7-1.7,3.5-2.5,5.3c-0.1,0.3-0.3,0.4-0.5,0.1c-0.4-0.6-0.6-1.3-0.1-3c0.2-0.6,0.6-1.5,1.2-2.8c-0.6-0.3-0.8-0.6-0.9-0.9
	c-0.2-0.3-0.1-0.4,0.4-0.4c0.4,0,0.8,0.1,1.1,0.1c1.7-3.6,4.2-8.3,5.3-9.8c0.2-0.3,0.5-0.3,0.6,0c0.4,0.8,0.3,2.1-0.7,4
	c-0.8,1.5-1.9,3.4-3.1,5.7c1.9-0.2,3.5-0.7,5.3-0.8c1.8-3.5,4.1-7.8,5.2-9.2c0.3-0.4,0.5-0.3,0.7,0c0.4,0.8,0.3,2.1-0.8,4.1
	C106.6,33.9,105.5,35.7,104.4,37.8L104.4,37.8z M123.3,45.5c-1.8,0-2.4-1.1-2.2-2.6c-0.9,1.2-2.3,2.7-3.9,2.5
	c-1.9-0.2-2-2.1-1.4-3.9c0.2-0.7,0.6-1.5,1-2.3c-0.8,0.4-1.6,0.6-2.4,0.5c-0.6,2.3-2.3,4.9-4.2,5.6c-1,0.3-2.4,0.2-3.4-1.2
	c-1.2-1.6-0.8-3.9,0.4-6.1c1-1.9,2.7-3.4,4.3-3.5c0.8-0.1,1.3,0.2,1.8,0.9c0.6,0.8,1.4,1,1.3,3c0,0.2,0,0.3-0.1,0.5
	c1.5,0,3-1.3,3.9-2.8c0.3-0.4,0.7-1,1-1.5c0.2-0.3,0.5-0.3,0.7,0c0.6,0.9,0.5,2-0.5,3.6s-1.6,2.7-2.1,3.9c-0.5,1.3-0.5,2.3,0.1,2.3
	c1.1,0.1,2.6-1.8,4-4.1c1.7-2.7,2.5-4.6,3.3-5.8c0.2-0.4,0.5-0.4,0.7-0.2c0.4,0.5,0.6,1.6,0,3c-0.6,1.2-1.9,3.2-2.5,4.6
	c-0.7,1.6-0.6,2.7,0.4,2.6c1.1-0.1,2.5-1.8,3.5-3.7c0.1-0.2,0.4-0.3,0.5,0c0.1,0.2,0.1,0.9-0.2,1.7
	C126.5,44.1,124.9,45.5,123.3,45.5L123.3,45.5z M110.9,36.4c-0.7,0.6-1.5,1.5-2.1,2.6c-1.1,2-1.5,4.5-0.8,5.1s2.4-0.4,3.7-2.8
	c0.4-0.8,0.7-1.5,0.9-2.2C111.8,38.6,110.9,37.5,110.9,36.4z M112.3,36.5c-0.1,0.7,0.1,1.4,0.6,1.8c0.2-0.8,0.2-1.5,0.2-1.9
	C113,35.6,112.3,35.7,112.3,36.5z M131.1,35.9c0.1-1.1,0.4-1.6,1-2.1s1.2-0.6,1.5-0.4c0.3,0.3,0.1,0.6-0.2,1.2
	c-0.1,0.2-0.2,0.3-0.3,0.5c-0.2,2.5,0.3,4.6,0.2,6.5c-0.1,1.1-0.2,2.2-1.2,2.8c1.8-0.7,2.9-2.3,3.6-3.8c0.1-0.3,0.4-0.2,0.5,0
	s0.1,0.9-0.4,1.8c-1,1.9-2.9,2.9-4.8,3c-1.6,0.1-3.1-0.4-4-2c-0.6-1.2-0.6-3,0.4-3.8c0.3-0.3,0.5-0.2,0.6,0.3c0,0.2,0,0.4,0.1,0.6
	C129.1,39.1,130.3,37.3,131.1,35.9L131.1,35.9z M128.3,42c0.4,1.6,1.2,2.7,2.1,2.4c1.2-0.4,0.8-4.6,0.7-6.8
	C130.3,39.1,129.3,40.6,128.3,42z M139.2,44.6c2.2,0.1,4.2-2.1,5.4-3.8c0.1-0.2,0.4-0.2,0.5,0s0,1-0.5,1.7c-1.1,1.6-3.2,2.9-5.3,2.9
	c-3.4,0.1-4.6-3.3-2.9-6.8c1.8-3.5,4.5-4.9,5.9-4.1c0.7,0.4,1.2,0.8,1.6,1.4c0.5,0.6,0.3,2.3-0.9,3.7c-1.3,1.6-3.1,2.3-5,0.8
	C137.2,42.9,137.8,44.6,139.2,44.6z M141.5,38.4c0.9-1.1,1.5-2.5,1.1-2.8c-0.6-0.5-2.8,1.2-4.1,3.7c-0.1,0.2-0.2,0.3-0.2,0.5
	C139.6,40.6,140.7,39.5,141.5,38.4z M82,91.5c-4.1,0-7.5-3.4-7.5-7.5s3.4-7.5,7.5-7.5s7.5,3.4,7.5,7.5S86.1,91.5,82,91.5z M82,77.5
	c-3.6,0-6.5,2.9-6.5,6.5s2.9,6.5,6.5,6.5s6.5-2.9,6.5-6.5S85.6,77.5,82,77.5z M53,84h59.1v1H53V84z"/>
</svg>
