<svg xmlns="http://www.w3.org/2000/svg" xmlns:xlink="http://www.w3.org/1999/xlink"><defs><symbol id="icon-logo-final-53c97" viewBox="0 0 163 92"><path fill="#FE765F" d="M10.3 61.5c0 1.7-1.3 2.5-3.4 2.5H.6v-9.1h6.1c1.8 0 3.2.8 3.2 2.3 0 1-.6 2-2 2.1 1.4.1 2.4.7 2.4 2.2zm-8.6-2.6h4.8c1.3 0 2.2-.3 2.2-1.5 0-1.1-.9-1.5-2.2-1.5H1.7v3zm7.5 2.5c0-1.1-.9-1.6-2.5-1.6h-5V63h5c1.6 0 2.5-.5 2.5-1.6zm3-.9c0-2.3 1.6-3.8 4.3-3.8s4.3 1.5 4.3 3.8-1.6 3.8-4.3 3.8-4.3-1.5-4.3-3.8zm7.5 0c0-1.9-1.4-2.9-3.2-2.9s-3.2.9-3.2 2.9c0 1.9 1.4 2.9 3.2 2.9 1.9-.1 3.2-1 3.2-2.9zM30.3 62c0 1.3-1.3 2.3-3.7 2.3-1.6 0-3-.6-4.1-1.5l.7-.6c.9.8 2 1.3 3.5 1.3s2.6-.5 2.6-1.3c0-.9-1.1-1.1-2.9-1.3-1.9-.2-3.7-.6-3.7-2s1.6-2.1 3.7-2.1c1.4 0 2.8.6 3.5 1.2l-.7.7c-.7-.6-1.6-1-2.9-1-1.1 0-2.5.2-2.5 1.2 0 .9 1.3 1.1 2.8 1.2 2.2 0 3.7.5 3.7 1.9zm2.2 2v-7.1h1.1v1.5c.7-1.1 1.9-1.7 3.4-1.7 2.2 0 3.2 1.4 3.2 3.3v4h-1.1v-3.9c0-1.6-.8-2.5-2.4-2.5-1.4 0-2.5.6-3.2 2V64h-1zM43 55.1c0-.4.3-.7.8-.7.4 0 .8.3.8.7s-.3.7-.8.7-.8-.3-.8-.7zm1.2 8.9h-1.1v-7.1h1.1V64zm10.2-3.9v2.5c0 .5.1 1 .3 1.4h-1.1c-.2-.4-.3-.7-.3-1.1-.6.8-1.7 1.4-3.2 1.4s-3.6-.6-3.6-2.5 2.1-2.5 3.6-2.5 2.7.6 3.2 1.4v-.6c0-1.7-1-2.5-2.9-2.5-1.1 0-2 .3-2.8.8l-.5-.8c.8-.6 2.2-1 3.5-1 2.4.1 3.8 1.2 3.8 3.5zm-1 1.5c-.6-1.1-2-1.5-3.1-1.5-1 0-2.7.3-2.7 1.6s1.6 1.6 2.7 1.6c1.2 0 2.5-.4 3.1-1.5v-.2zm3.9 2.4v-7.1h1.1v1.5c.7-1.1 1.9-1.7 3.4-1.7 2.2 0 3.2 1.4 3.2 3.3v4h-1.1v-3.9c0-1.6-.8-2.5-2.4-2.5-1.4 0-2.5.6-3.2 2V64h-1zM81 64l-3-3.5h-4.3V64h-1.1v-9.1h6.1c2 0 3.5 1 3.5 2.8 0 1.6-1.1 2.6-2.8 2.8l3.1 3.5H81zm-2.4-4.5c1.5 0 2.4-.6 2.4-1.8s-1-1.8-2.4-1.8h-4.9v3.6h4.9zm9.9 3.9c1.4 0 2.2-.4 3.1-1.1l.7.7c-1 .9-2.1 1.3-3.8 1.3-2.7 0-4.3-1.5-4.3-3.8s1.6-3.8 4.3-3.8c2.5 0 4.1 1.4 4.1 3.8v.2h-7.3c0 1.8 1.3 2.7 3.2 2.7zm-3.2-3.6h6.2c-.3-1.6-1.5-2.2-3-2.2-1.7 0-3 .7-3.2 2.2zm16.6 2.2c0 1.3-1.3 2.3-3.7 2.3-1.6 0-3-.6-4.1-1.5l.7-.6c.9.8 2 1.3 3.5 1.3s2.6-.5 2.6-1.3c0-.9-1.1-1.1-2.9-1.3-1.9-.2-3.7-.6-3.7-2s1.6-2.1 3.7-2.1c1.4 0 2.8.6 3.5 1.2l-.7.7c-.7-.6-1.6-1-2.9-1-1.1 0-2.5.2-2.5 1.2 0 .9 1.3 1.1 2.8 1.2 2.2 0 3.7.5 3.7 1.9zm6.9 1.6c-.6.4-1.3.7-2.1.7-1.3 0-2.3-.7-2.3-2.1v-4.4H103v-.9h1.4v-1.7h1.1v1.7h3.3v.9h-3.3V62c0 .9.7 1.3 1.4 1.3.6 0 1-.2 1.5-.5l.4.8zm9.1-3.5v2.5c0 .5.1 1 .3 1.4h-1.1c-.2-.4-.3-.7-.3-1.1-.6.8-1.7 1.4-3.2 1.4s-3.6-.6-3.6-2.5 2.1-2.5 3.6-2.5 2.7.6 3.2 1.4v-.6c0-1.7-1-2.5-2.9-2.5-1.1 0-2 .3-2.8.8l-.5-.8c.8-.6 2.2-1 3.5-1 2.3.1 3.8 1.2 3.8 3.5zm-1.1 1.5c-.6-1.1-2-1.5-3.1-1.5-1 0-2.7.3-2.7 1.6s1.6 1.6 2.7 1.6c1.2 0 2.5-.4 3.1-1.5v-.2zm11.6-4.7V64h-1.1v-1.5c-.7 1.1-1.9 1.7-3.4 1.7-2.2 0-3.2-1.4-3.2-3.3v-4h1.1v3.9c0 1.6.8 2.5 2.4 2.5 1.4 0 2.5-.6 3.2-1.9V57l1-.1zm2.9 7.1v-7.1h1.1v1.7c.6-1.2 2-1.9 3.5-1.9v1c-1.6 0-3 .7-3.5 2.1V64h-1.1zm13.4-3.9v2.5c0 .5.1 1 .3 1.4h-1.1c-.2-.4-.3-.7-.3-1.1-.6.8-1.7 1.4-3.2 1.4s-3.6-.6-3.6-2.5 2.1-2.5 3.6-2.5 2.7.6 3.2 1.4v-.6c0-1.7-1-2.5-2.9-2.5-1.1 0-2 .3-2.8.8l-.5-.8c.8-.6 2.2-1 3.5-1 2.4.1 3.8 1.2 3.8 3.5zm-1 1.5c-.6-1.1-2-1.5-3.1-1.5-1 0-2.7.3-2.7 1.6s1.6 1.6 2.7 1.6c1.2 0 2.5-.4 3.1-1.5v-.2zm3.9 2.4v-7.1h1.1v1.5c.7-1.1 1.9-1.7 3.4-1.7 2.2 0 3.2 1.4 3.2 3.3v4h-1.1v-3.9c0-1.6-.8-2.5-2.4-2.5-1.4 0-2.5.6-3.2 2V64h-1zm15.2-.4c-.6.4-1.3.7-2.1.7-1.3 0-2.3-.7-2.3-2.1v-4.4H157v-.9h1.4v-1.7h1.1v1.7h3.3v.9h-3.3V62c0 .9.7 1.3 1.4 1.3.6 0 1-.2 1.5-.5l.4.8zM82 16l-8-8 8-8 8 8-8 8zm-6.6-8l6.6 6.6L88.6 8 82 1.4 75.4 8zM53 7.7h59.1v1H53v-1z"/><path fill="#0C2765" d="M30.6 28.6c.3-.3.5-.2.6.1.2.9-.2 2.1-1.5 3.8-1.9 2.5-6.2 7.8-9.4 12.7-.2.3-.4.4-.8.1-1-.8-1.4-1.7-1.2-3.6.5-4.2 1.8-10.5 2.8-13.1.2-.4.4-.5.6-.2.6.7.7 1.7.3 3.8-.6 2.6-1.5 6.4-2.1 10.5 2.6-4.2 8.3-11.6 10.7-14.1zm5.2 6c.2-.4.5-.4.6-.2.4.5.6 1.6 0 3-.6 1.2-1.9 3.2-2.6 4.7-.7 1.5-.7 2.7.2 2.6 1.1-.1 2.6-1.9 3.5-3.8.1-.2.3-.3.4 0 .1.2.1.9-.2 1.7-.7 1.5-2.4 3-3.9 2.9s-2.2-.9-2.2-2.2c-.9 1.1-2.1 2.1-3.4 2.1-2.5 0-3-3.4-.8-6.7 2.2-3.2 4.3-4.4 5.7-4.4 1.2 0 1.7.9 1.6 1.9.5-.6.8-1.2 1.1-1.6zm-2.1 1.1c-.9-.1-2.8 1.7-4.3 4.1-1.4 2.3-1.8 4.7-.7 4.7s2.5-1.7 3.9-4.1c1.6-3 1.9-4.6 1.1-4.7zm8 .2c.1-1.1.4-1.6 1-2.1s1.2-.6 1.5-.4c.3.3.1.6-.2 1.2-.1.2-.2.3-.3.5-.2 2.5.3 4.6.2 6.5-.1 1.1-.2 2.2-1.2 2.8 1.8-.7 2.9-2.3 3.6-3.8.1-.3.4-.2.5 0s.1.9-.4 1.8c-1 1.9-2.9 2.9-4.8 3-1.6.1-3.1-.4-4-2-.6-1.2-.6-3 .4-3.8.3-.3.5-.2.6.3 0 .2 0 .4.1.6 1-1.4 2.3-3.2 3-4.6zM38.9 42c.4 1.6 1.2 2.7 2.1 2.4 1.2-.4.8-4.6.7-6.8-.8 1.5-1.8 3-2.8 4.4zm15.4-5.9c.6 1.1-.5 2.6-1.1 4-.1.3-.2.4-.6.2-.6-.3-1-1.1-.6-2.3.3-1 1.1-2.1.7-2.4-.5-.4-2.5 1.3-3.7 3.8-1.5 3.1-.9 5.3.7 5.3 2.3 0 4.2-2.1 5.3-3.8.1-.2.4-.2.5 0s0 .9-.5 1.6c-1 1.6-3.2 2.9-5.2 2.9-3.4.1-4.6-3.3-2.8-6.8 1.7-3.4 4.5-4.9 5.8-4 .8.4 1.2.8 1.5 1.5zM73 39.5c-.6 2.3-2.2 5-4.2 5.7-1 .3-2.3.3-3.4-1.1-1-1.3-.9-3.1-.2-4.9-.5.2-1.1.4-1.7.4-.6 2.3-2.2 5-4.2 5.7-1 .3-2.3.3-3.4-1.1-1.2-1.6-.8-4 .4-6.1 1.1-1.8 2.7-3.4 4.3-3.5.8-.1 1.3.1 1.8.9.6.9 1.4 1 1.3 3v.4c1.1-.2 2.1-1.1 2.9-2.1 1-1.2 2.2-2.1 3.5-2.2.8-.1 1.3.2 1.8.9.6.9 1.4 1 1.3 3 0 .2 0 .4-.1.6h.5c.2-.1.2.1.1.3-.1 0-.4.1-.7.1zM57.9 39c-1.2 2-1.6 4.5-.8 5.1.7.6 2.3-.4 3.7-2.8.4-.8.8-1.6 1-2.2-.9-.5-1.8-1.5-1.8-2.6-.7.6-1.5 1.5-2.1 2.5zm3.4-2.4c-.1.8.1 1.5.6 1.9.2-.8.2-1.5.2-2-.1-.9-.7-.8-.8.1zm9.4 2.2c-.6-.4-1.3-1.4-1.3-2.3-.7.6-1.4 1.5-2 2.5-1.2 2-1.5 4.5-.8 5.1s2.3-.4 3.7-2.8c.4-.8.8-1.5 1-2.2-.3 0-.4-.1-.6-.3zm.9-2.4c-.1-.9-.6-.7-.8.1-.1.7.2 1.5.6 1.9.2-.8.2-1.5.2-2zm6.5-2.9c-.2 0-.2-.2-.1-.5.6-1.3 2.2-4.2 3.1-5.2.4-.4.6-.3.7 0 .2.5-.1 1.1-.4 1.6-.6 1-1.9 2.8-2.6 3.6-.3.5-.5.5-.7.5zm3.4 2.4c.1-1.1.4-1.6 1-2.1s1.2-.6 1.5-.4c.3.3.1.6-.2 1.2-.1.2-.2.3-.3.5-.2 2.5.3 4.6.2 6.5-.1 1.1-.2 2.2-1.2 2.8 1.8-.7 2.9-2.3 3.6-3.8.1-.3.4-.2.5 0s.1.9-.4 1.8c-1 1.9-2.9 2.9-4.8 3-1.6.1-3.1-.4-4-2-.6-1.2-.6-3 .4-3.8.3-.3.5-.2.6.3 0 .2 0 .4.1.6 1-1.4 2.2-3.2 3-4.6zM78.6 42c.4 1.6 1.2 2.7 2.1 2.4 1.2-.4.8-4.6.7-6.8-.8 1.5-1.8 3-2.8 4.4zm25.8-4.2c.6.3.9.7 1.1 1.2.1.2 0 .4-.3.3-.4-.1-.9-.1-1.5-.1-.9 1.8-1.9 3.7-2.8 5.7-.1.3-.3.3-.5.1-.4-.5-.6-1.3-.1-3 .2-.5.6-1.5 1.1-2.6-2 .2-4 .6-5.3.6-.8 1.7-1.7 3.5-2.5 5.3-.1.3-.3.4-.5.1-.4-.6-.6-1.3-.1-3 .2-.6.6-1.5 1.2-2.8-.6-.3-.8-.6-.9-.9-.2-.3-.1-.4.4-.4.4 0 .8.1 1.1.1 1.7-3.6 4.2-8.3 5.3-9.8.2-.3.5-.3.6 0 .4.8.3 2.1-.7 4-.8 1.5-1.9 3.4-3.1 5.7 1.9-.2 3.5-.7 5.3-.8 1.8-3.5 4.1-7.8 5.2-9.2.3-.4.5-.3.7 0 .4.8.3 2.1-.8 4.1-.7 1.5-1.8 3.3-2.9 5.4zm18.9 7.7c-1.8 0-2.4-1.1-2.2-2.6-.9 1.2-2.3 2.7-3.9 2.5-1.9-.2-2-2.1-1.4-3.9.2-.7.6-1.5 1-2.3-.8.4-1.6.6-2.4.5-.6 2.3-2.3 4.9-4.2 5.6-1 .3-2.4.2-3.4-1.2-1.2-1.6-.8-3.9.4-6.1 1-1.9 2.7-3.4 4.3-3.5.8-.1 1.3.2 1.8.9.6.8 1.4 1 1.3 3 0 .2 0 .3-.1.5 1.5 0 3-1.3 3.9-2.8.3-.4.7-1 1-1.5.2-.3.5-.3.7 0 .6.9.5 2-.5 3.6s-1.6 2.7-2.1 3.9c-.5 1.3-.5 2.3.1 2.3 1.1.1 2.6-1.8 4-4.1 1.7-2.7 2.5-4.6 3.3-5.8.2-.4.5-.4.7-.2.4.5.6 1.6 0 3-.6 1.2-1.9 3.2-2.5 4.6-.7 1.6-.6 2.7.4 2.6 1.1-.1 2.5-1.8 3.5-3.7.1-.2.4-.3.5 0 .1.2.1.9-.2 1.7-.8 1.6-2.4 3-4 3zm-12.4-9.1c-.7.6-1.5 1.5-2.1 2.6-1.1 2-1.5 4.5-.8 5.1s2.4-.4 3.7-2.8c.4-.8.7-1.5.9-2.2-.8-.5-1.7-1.6-1.7-2.7zm1.4.1c-.1.7.1 1.4.6 1.8.2-.8.2-1.5.2-1.9-.1-.8-.8-.7-.8.1zm18.8-.6c.1-1.1.4-1.6 1-2.1s1.2-.6 1.5-.4c.3.3.1.6-.2 1.2-.1.2-.2.3-.3.5-.2 2.5.3 4.6.2 6.5-.1 1.1-.2 2.2-1.2 2.8 1.8-.7 2.9-2.3 3.6-3.8.1-.3.4-.2.5 0s.1.9-.4 1.8c-1 1.9-2.9 2.9-4.8 3-1.6.1-3.1-.4-4-2-.6-1.2-.6-3 .4-3.8.3-.3.5-.2.6.3 0 .2 0 .4.1.6 1-1.4 2.2-3.2 3-4.6zm-2.8 6.1c.4 1.6 1.2 2.7 2.1 2.4 1.2-.4.8-4.6.7-6.8-.8 1.5-1.8 3-2.8 4.4zm10.9 2.6c2.2.1 4.2-2.1 5.4-3.8.1-.2.4-.2.5 0s0 1-.5 1.7c-1.1 1.6-3.2 2.9-5.3 2.9-3.4.1-4.6-3.3-2.9-6.8 1.8-3.5 4.5-4.9 5.9-4.1.7.4 1.2.8 1.6 1.4.5.6.3 2.3-.9 3.7-1.3 1.6-3.1 2.3-5 .8-.8 2.5-.2 4.2 1.2 4.2zm2.3-6.2c.9-1.1 1.5-2.5 1.1-2.8-.6-.5-2.8 1.2-4.1 3.7-.1.2-.2.3-.2.5 1.3.8 2.4-.3 3.2-1.4zM82 91.5c-4.1 0-7.5-3.4-7.5-7.5s3.4-7.5 7.5-7.5 7.5 3.4 7.5 7.5-3.4 7.5-7.5 7.5zm0-14c-3.6 0-6.5 2.9-6.5 6.5s2.9 6.5 6.5 6.5 6.5-2.9 6.5-6.5-2.9-6.5-6.5-6.5zM53 84h59.1v1H53v-1z"/></symbol></defs><view id="view-icon-logo-final-53c97" viewBox="0 0 88.59 50"></view><use id="icon-logo-final-53c97" xlink:href="#icon-logo-final-53c97" width="88.59" height="50" x="0" y="0"></use></svg>